<svg xmlns="http://www.w3.org/2000/svg" width="700pt" height="700pt" version="1" viewBox="0 0 700.000000 700.000000"><path d="M252.5 125.4c-11.1 3.5-20.1 10.2-26.1 19.3-2 3.2-3.8 6-4 6.1-.1.2-3.7-1.3-8-3.4-7.3-3.6-8.4-3.9-18.3-4.2-9.3-.3-11.4-.1-17.1 2-5.6 2.1-35.1 18.7-138.5 78.1-28.4 16.3-34.8 22.9-39.1 40-2.1 7.8-1.4 19 1.5 26.7 1.1 3 35.7 64.1 76.9 135.8 82.4 143.7 78.8 138 92.7 144.7 8.9 4.4 18.1 5.9 27.3 4.5 8.8-1.3 15.3-4.6 72.2-37.4l46.5-26.8 32 .7 32 .7 49 28.6c27 15.7 51.9 29.9 55.5 31.6 5.6 2.6 7.9 3.1 16.5 3.4 11.5.5 19-1.5 27.9-7.2 8-5.1 12.1-10.6 27-36.2 110.3-189.8 137.3-236.7 138.9-240.9 1-2.8 2.1-8.4 2.4-12.6 1-13.4-3.2-25-12.6-35.2-5.8-6.3-7.8-7.5-62.1-38.9-15.7-9.1-43.8-25.4-62.5-36.3-18.7-10.9-36-20.6-38.3-21.6-13.9-6-27.7-4.5-45.4 4.9-.4.2-1.7-1.6-2.9-3.9-2.8-5.7-12.1-14.7-18.5-18.1-11.1-5.9-8.4-5.8-108.9-5.7-71.5 0-92.9.3-96 1.3zm190.8 28.2c4.6 2.3 6.6 4.4 8.9 8.8 2 3.9 2 5.7 1.9 154.3-.2 105.2-.5 151.3-1.3 153.5-1.7 5.2-5.4 9.4-10.1 11.7-4.2 2-5.8 2.1-40.6 2.1h-36.3l5.5-5c6.7-6.2 10.9-12.5 13.7-21 1.9-5.5 2.1-8 1.7-16-.3-5.8-1.1-11.3-2.2-14-1-2.5-7.2-13.9-13.7-25.3-6.6-11.5-12.2-21.5-12.5-22.3-.4-1.2 3.5-1.4 25.8-1.4 24.4 0 26.6-.2 29.6-2 1.8-1 3.9-3.3 4.8-4.9 3.6-7 3.6-7-28.3-62.1-31.7-54.8-32.5-56-39.9-56-4.5 0-8.6 2.2-11.6 6.2-1.3 1.8-7.5 12.2-13.8 23-6.2 10.9-11.4 19.6-11.5 19.5-.1-.1-15.3-26.6-33.8-58.8L246 185.3v-9.4c0-7.4.4-10.2 2.1-13.6 2.2-4.6 6.4-8.3 11.4-10.2 2.2-.8 26.9-1 91.8-.6 78.9.5 89.2.7 92 2.1zm-239.2 19.6c2.2 1.2 5.2 4.2 6.8 6.7C221.5 196.8 358.1 436.6 359 440c1.5 5.7-.7 13.4-5.2 17.6-1.8 1.7-19.3 12.2-38.8 23.4-51.1 29.2-95.3 54.5-104.5 60-9.1 5.3-13.5 7-17.9 7-4.2-.1-10.5-3.1-13.7-6.6-2.2-2.4-142.5-245.9-148.8-258.2-3.8-7.4-2.1-18.3 3.5-23.4 1.7-1.4 32.2-19.1 125.9-72.8 13.8-7.9 26.6-15 28.5-15.7 4.5-1.7 11.1-.9 16.1 1.9zm339.5 16.3c91.3 52.9 120.2 69.9 122.8 72.3 3.9 3.6 5.6 8.1 5.6 14.5 0 5.3-1.1 7.2-75.4 135.3-54 92.9-76.4 130.7-78.8 132.6-5 4.1-11.4 5.5-17 3.7-5-1.7-62.8-34.9-62.8-36.1 0-.5 1.3-.8 3-.8 4.6 0 15.3-4.3 20.9-8.4 10.4-7.7 17.4-19.6 19.1-32.7.5-4 1-18.4 1-31.8 0-22.3.1-24.3 1.7-23.7.9.4 8.9 4.8 17.7 9.8 17.7 9.9 22.6 11.4 28.4 8.4 3.6-1.9 3.6-1.9 30.2-49.6 16.2-29.1 19.3-35.3 19.7-39.5.8-9 .7-9.1-45.3-34.7-23.2-12.9-42.4-22.9-44-23-1.6-.1-4.1.1-5.6.5l-2.8.7v-93.5l4.1-7c2.2-3.9 5-8.1 6.2-9.4 3.7-4 9.6-6.2 15.3-5.8 4.6.3 8.7 2.4 36 18.2zm-177.8 134c8.3 14.5 15.2 26.6 15.2 26.9 0 .3-8.9.6-19.8.6h-19.8l-5.8-10.1-5.7-10.1 8.7-15.1c10.5-18.4 10.7-18.7 11.4-18.7.3 0 7.4 11.9 15.8 26.5zM547 348.3c0 1-27.7 50.7-28.9 52-.5.5-8.8-3.6-18.5-9l-17.6-9.8v-41.4l6-10.9 6.1-11 26.4 14.7c14.6 8 26.5 15 26.5 15.4zM184 303.7c-5.9 1-15.3 4.7-20.7 8.2-16 10.3-25.5 28-25.5 47.1 0 15.7 5.3 28.3 16.6 39.6 16.8 16.8 40.6 21.1 62.5 11.3 13.9-6.3 25.8-19.6 30.1-33.8 6.5-20.8 1.5-40.8-14.1-56.4-8.3-8.4-17.3-13.4-27.7-15.6-5.1-1.1-16-1.3-21.2-.4zM278.5 445.2c-10.2 8-4.8 24.8 8 24.8 5.1 0 9.7-2.8 11.8-7.3 2.1-4.3 2.1-7.7.3-12.1-2.2-5.2-6-7.6-12.1-7.6-3.9 0-6 .6-8 2.2zM222.1 477.4c-12.9 7.3-24.9 14.5-26.7 16-4.8 3.8-6.2 9.2-4 15.1 2 5 4.3 7.1 9.8 8.6 2.9.7 4.6.6 7.4-.6 6.2-2.6 47.7-26.7 50.7-29.4 4.2-3.9 5.4-9 3.3-14.5-2.2-5.6-6.6-8.6-12.8-8.6-3.8 0-7.4 1.7-27.7 13.4z"/></svg>