<?xml version="1.0" standalone="no"?>
<!DOCTYPE svg PUBLIC "-//W3C//DTD SVG 20010904//EN"
 "http://www.w3.org/TR/2001/REC-SVG-20010904/DTD/svg10.dtd">
<svg version="1.0" xmlns="http://www.w3.org/2000/svg"
 width="700.000000pt" height="700.000000pt" viewBox="0 0 700.000000 700.000000"
 preserveAspectRatio="xMidYMid meet">
<metadata>
Created by potrace 1.11, written by Peter Selinger 2001-2013
</metadata>
<g transform="translate(0.000000,700.000000) scale(0.100000,-0.100000)"
fill="#000000" stroke="none">
<path d="M2525 5746 c-111 -35 -201 -102 -261 -193 -20 -32 -38 -60 -40 -61
-1 -2 -37 13 -80 34 -73 36 -84 39 -183 42 -93 3 -114 1 -171 -20 -56 -21
-351 -187 -1385 -781 -284 -163 -348 -229 -391 -400 -21 -78 -14 -190 15 -267
11 -30 357 -641 769 -1358 824 -1437 788 -1380 927 -1447 89 -44 181 -59 273
-45 88 13 153 46 722 374 l465 268 320 -7 320 -7 490 -286 c270 -157 519 -299
555 -316 56 -26 79 -31 165 -34 115 -5 190 15 279 72 80 51 121 106 270 362
1103 1898 1373 2367 1389 2409 10 28 21 84 24 126 10 134 -32 250 -126 352
-58 63 -78 75 -621 389 -157 91 -438 254 -625 363 -187 109 -360 206 -383 216
-139 60 -277 45 -454 -49 -4 -2 -17 16 -29 39 -28 57 -121 147 -185 181 -111
59 -84 58 -1089 57 -715 0 -929 -3 -960 -13z m1908 -282 c46 -23 66 -44 89
-88 20 -39 20 -57 19 -1543 -2 -1052 -5 -1513 -13 -1535 -17 -52 -54 -94 -101
-117 -42 -20 -58 -21 -406 -21 l-363 0 55 50 c67 62 109 125 137 210 19 55 21
80 17 160 -3 58 -11 113 -22 140 -10 25 -72 139 -137 253 -66 115 -122 215
-125 223 -4 12 35 14 258 14 244 0 266 2 296 20 18 10 39 33 48 49 36 70 36
70 -283 621 -317 548 -325 560 -399 560 -45 0 -86 -22 -116 -62 -13 -18 -75
-122 -138 -230 -62 -109 -114 -196 -115 -195 -1 1 -153 266 -338 588 l-336
586 0 94 c0 74 4 102 21 136 22 46 64 83 114 102 22 8 269 10 918 6 789 -5
892 -7 920 -21z m-2392 -196 c22 -12 52 -42 68 -67 106 -169 1472 -2567 1481
-2601 15 -57 -7 -134 -52 -176 -18 -17 -193 -122 -388 -234 -511 -292 -953
-545 -1045 -600 -91 -53 -135 -70 -179 -70 -42 1 -105 31 -137 66 -22 24
-1425 2459 -1488 2582 -38 74 -21 183 35 234 17 14 322 191 1259 728 138 79
266 150 285 157 45 17 111 9 161 -19z m3395 -163 c913 -529 1202 -699 1228
-723 39 -36 56 -81 56 -145 0 -53 -11 -72 -754 -1353 -540 -929 -764 -1307
-788 -1326 -50 -41 -114 -55 -170 -37 -50 17 -628 349 -628 361 0 5 13 8 30 8
46 0 153 43 209 84 104 77 174 196 191 327 5 40 10 184 10 318 0 223 1 243 17
237 9 -4 89 -48 177 -98 177 -99 226 -114 284 -84 36 19 36 19 302 496 162
291 193 353 197 395 8 90 7 91 -453 347 -232 129 -424 229 -440 230 -16 1 -41
-1 -56 -5 l-28 -7 0 467 0 468 41 70 c22 39 50 81 62 94 37 40 96 62 153 58
46 -3 87 -24 360 -182z m-1778 -1340 c83 -145 152 -266 152 -269 0 -3 -89 -6
-198 -6 l-198 0 -58 101 -57 101 87 151 c105 184 107 187 114 187 3 0 74 -119
158 -265z m1812 -248 c0 -10 -277 -507 -289 -520 -5 -5 -88 36 -185 90 l-176
98 0 207 0 207 60 109 61 110 264 -147 c146 -80 265 -150 265 -154z"/>
<path d="M1840 3963 c-59 -10 -153 -47 -207 -82 -160 -103 -255 -280 -255
-471 0 -157 53 -283 166 -396 168 -168 406 -211 625 -113 139 63 258 196 301
338 65 208 15 408 -141 564 -83 84 -173 134 -277 156 -51 11 -160 13 -212 4z"/>
<path d="M2785 2548 c-102 -80 -48 -248 80 -248 51 0 97 28 118 73 21 43 21
77 3 121 -22 52 -60 76 -121 76 -39 0 -60 -6 -80 -22z"/>
<path d="M2221 2226 c-129 -73 -249 -145 -267 -160 -48 -38 -62 -92 -40 -151
20 -50 43 -71 98 -86 29 -7 46 -6 74 6 62 26 477 267 507 294 42 39 54 90 33
145 -22 56 -66 86 -128 86 -38 0 -74 -17 -277 -134z"/>
</g>
</svg>
